PathFileType	4	(X/Y/Z)	S:\OneDrive - The University of Tokyo\ìåëÂéˆã∆\ÉoÉCÉÅÉJ\ë™íË\hirabayashi_2\Trimmed\Trimmed_BarL20kg1.trc
DataRate	CameraRate	NumFrames	NumMarkers	Units	OrigDataRate	OrigDataStartFrame	OrigNumFrames
200.00	200.00	       19	12	mm	200.00	268	       306
Frame#	Time	BarR0			BarR50			BarR100			BarR130			BarR180			BarR230			BarL0			BarL50			BarL100			BarL130			BarL180			BarL230			
		X1	Y1	Z1	X2	Y2	Z2	X3	Y3	Z3	X4	Y4	Z4	X5	Y5	Z5	X6	Y6	Z6	X7	Y7	Z7	X8	Y8	Z8	X9	Y9	Z9	X10	Y10	Z10	X11	Y11	Z11	X12	Y12	Z12	

268	1.335	-575.95721	2755.41870	1664.46216	-604.84735	2306.27295	1662.42078	-637.27722	1851.83289	1662.07825	-660.70062	1349.38452	1662.45740	-690.06757	902.68420	1662.65796	-713.71802	454.66501	1664.11841	-1113.54187	2807.75195	1664.61633	-1140.80066	2356.11523	1663.21521	-1171.41748	1905.90698	1660.97791	-1198.83643	1404.18445	1661.36389	-1227.44397	952.67151	1663.58582	-1244.68689	506.75095	1667.53076	
269	1.340	-575.95508	2755.40869	1664.46411	-604.80457	2306.22900	1662.42175	-637.28418	1851.86572	1662.06396	-660.70953	1349.37488	1662.44971	-690.05981	902.71777	1662.66455	-713.74713	454.68787	1664.10657	-1113.55713	2807.73267	1664.59644	-1140.81299	2356.11206	1663.19971	-1171.42651	1905.91443	1660.97986	-1198.83057	1404.15967	1661.37549	-1227.45813	952.66382	1663.56238	-1244.68262	506.75012	1667.54272	
270	1.345	-575.96033	2755.41260	1664.47229	-604.79980	2306.25659	1662.40112	-637.28381	1851.83398	1662.08252	-660.72607	1349.38647	1662.45520	-690.06689	902.68176	1662.66077	-713.74652	454.67725	1664.09326	-1113.55872	2807.71997	1664.60864	-1140.81519	2356.12573	1663.19312	-1171.41357	1905.86255	1660.98096	-1198.83655	1404.15820	1661.35522	-1227.45984	952.69727	1663.56482	-1244.68433	506.75970	1667.53870	
271	1.350	-575.95294	2755.39258	1664.46802	-604.79840	2306.25513	1662.40784	-637.25714	1851.85510	1662.06763	-660.69275	1349.38745	1662.45007	-690.05273	902.67670	1662.66565	-713.73108	454.67081	1664.09863	-1113.55603	2807.71777	1664.59961	-1140.79114	2356.09961	1663.20056	-1171.42749	1905.89746	1660.96216	-1198.82251	1404.15405	1661.36060	-1227.45813	952.68701	1663.55286	-1244.68469	506.76297	1667.52490	
272	1.355	-575.96405	2755.41187	1664.46753	-604.84784	2306.25562	1662.41150	-637.26935	1851.87329	1662.07507	-660.70618	1349.37805	1662.45129	-690.05853	902.71130	1662.65210	-713.72595	454.67786	1664.09985	-1113.56726	2807.73511	1664.60486	-1140.79553	2356.10718	1663.18640	-1171.41919	1905.90063	1660.96118	-1198.81714	1404.17346	1661.36414	-1227.44910	952.67798	1663.54919	-1244.68542	506.75714	1667.53113	
273	1.360	-575.97943	2755.42749	1664.45752	-604.79138	2306.24878	1662.39294	-637.26801	1851.86267	1662.05530	-660.69775	1349.38794	1662.45703	-690.07593	902.67871	1662.65295	-713.74652	454.68085	1664.10620	-1113.56421	2807.73389	1664.60632	-1140.80603	2356.13208	1663.18652	-1171.45007	1905.90466	1660.98242	-1198.79309	1404.16272	1661.37231	-1227.46863	952.68262	1663.55664	-1244.67224	506.73688	1667.51257	
274	1.365	-575.96277	2755.41431	1664.48279	-604.82666	2306.27832	1662.40857	-637.29822	1851.85999	1662.07727	-660.70844	1349.38525	1662.45251	-690.07538	902.68591	1662.65503	-713.73181	454.65643	1664.10779	-1113.56372	2807.71240	1664.60193	-1140.79871	2356.11865	1663.18604	-1171.43396	1905.89697	1660.97510	-1198.81262	1404.14624	1661.38037	-1227.45728	952.68176	1663.57043	-1244.68848	506.75058	1667.52551	
275	1.370	-575.97052	2755.43677	1664.46631	-604.79260	2306.23120	1662.40771	-637.27673	1851.85901	1662.08167	-660.71497	1349.37708	1662.46436	-690.05951	902.68915	1662.65015	-713.73462	454.68817	1664.10791	-1113.52759	2807.72510	1664.61084	-1140.81116	2356.12085	1663.19629	-1171.41309	1905.92346	1660.97192	-1198.82166	1404.18005	1661.36707	-1227.46765	952.70056	1663.55737	-1244.68396	506.76779	1667.53418	
276	1.375	-575.95306	2755.41577	1664.48328	-604.83392	2306.24463	1662.42175	-637.26501	1851.88562	1662.06213	-660.70752	1349.39014	1662.46313	-690.05768	902.69287	1662.66162	-713.72955	454.69110	1664.10718	-1113.54016	2807.72583	1664.60413	-1140.77429	2356.13062	1663.19031	-1171.40930	1905.90833	1660.96570	-1198.80408	1404.14404	1661.36023	-1227.46667	952.70923	1663.55762	-1244.69043	506.75705	1667.52905	
277	1.380	-575.96057	2755.41309	1664.47986	-604.80457	2306.25146	1662.41553	-637.27673	1851.83606	1662.07849	-660.71777	1349.37683	1662.45105	-690.07324	902.66077	1662.66187	-713.73846	454.67697	1664.10327	-1113.53687	2807.73926	1664.59033	-1140.81006	2356.12207	1663.19189	-1171.44604	1905.89587	1660.97144	-1198.80688	1404.15186	1661.36292	-1227.45801	952.68457	1663.55078	-1244.67627	506.74210	1667.52930	
278	1.385	-575.95483	2755.40967	1664.47583	-604.79938	2306.23438	1662.40771	-637.29181	1851.87756	1662.06494	-660.69135	1349.37024	1662.46509	-690.06433	902.65112	1662.65649	-713.72968	454.65497	1664.09961	-1113.54272	2807.72388	1664.60046	-1140.79773	2356.12769	1663.19275	-1171.40308	1905.88428	1660.95789	-1198.81848	1404.16199	1661.36072	-1227.46387	952.69641	1663.55566	-1244.68359	506.75793	1667.52771	
279	1.390	-575.96545	2755.42261	1664.46558	-604.81091	2306.25610	1662.41077	-637.27960	1851.86328	1662.04810	-660.70184	1349.36572	1662.45825	-690.05542	902.69061	1662.65381	-713.73425	454.67966	1664.10022	-1113.52771	2807.70874	1664.60107	-1140.80432	2356.12329	1663.19128	-1171.40283	1905.89392	1660.95715	-1198.80481	1404.17432	1661.36365	-1227.45496	952.69525	1663.54297	-1244.68286	506.75073	1667.51611	
280	1.395	-575.96326	2755.41797	1664.46082	-604.82117	2306.24438	1662.41663	-637.27808	1851.86438	1662.06458	-660.70117	1349.36377	1662.45447	-690.05609	902.68646	1662.65125	-713.73932	454.65997	1664.10510	-1113.53845	2807.71387	1664.60767	-1140.79968	2356.10400	1663.20703	-1171.41882	1905.87378	1660.97253	-1198.79749	1404.19238	1661.35547	-1227.46472	952.67627	1663.56226	-1244.69263	506.76947	1667.52747	
281	1.400	-575.96130	2755.42969	1664.46375	-604.81165	2306.24121	1662.43250	-637.28296	1851.86072	1662.06616	-660.71216	1349.36340	1662.45361	-690.06195	902.69220	1662.66736	-713.73438	454.68018	1664.10266	-1113.54053	2807.74219	1664.61658	-1140.79358	2356.11523	1663.19336	-1171.40637	1905.87830	1660.97388	-1198.80286	1404.15967	1661.36023	-1227.47180	952.70874	1663.55481	-1244.67114	506.76312	1667.52466	
282	1.405	-575.96655	2755.41553	1664.46741	-604.81519	2306.20996	1662.39087	-637.26837	1851.87512	1662.06348	-660.69263	1349.39124	1662.46143	-690.06360	902.68109	1662.66272	-713.73969	454.70078	1664.11487	-1113.52100	2807.72363	1664.61206	-1140.78149	2356.12671	1663.19299	-1171.40076	1905.89771	1660.98376	-1198.79895	1404.17834	1661.35474	-1227.46106	952.66791	1663.55383	-1244.69104	506.75479	1667.51636	
283	1.410	-575.96021	2755.42896	1664.47815	-604.79999	2306.24536	1662.40442	-637.30463	1851.86084	1662.08313	-660.69141	1349.36890	1662.45398	-690.05170	902.63867	1662.64270	-713.73663	454.68784	1664.10840	-1113.55664	2807.72412	1664.59448	-1140.80103	2356.12012	1663.20715	-1171.43567	1905.88464	1660.98096	-1198.80090	1404.14941	1661.37256	-1227.46301	952.67828	1663.55823	-1244.68176	506.76993	1667.51184	
284	1.415	-575.96436	2755.41138	1664.46155	-604.82861	2306.24683	1662.41992	-637.29236	1851.87512	1662.05774	-660.69879	1349.37549	1662.44153	-690.06769	902.67090	1662.64966	-713.72980	454.69156	1664.11133	-1113.55798	2807.74146	1664.59497	-1140.79175	2356.12061	1663.18115	-1171.41663	1905.89258	1660.98230	-1198.80945	1404.17017	1661.35974	-1227.45776	952.70319	1663.55029	-1244.67517	506.73944	1667.53748	
285	1.420	-575.95361	2755.41943	1664.47876	-604.82349	2306.22729	1662.42529	-637.28119	1851.87244	1662.06470	-660.69855	1349.37378	1662.44775	-690.05499	902.68604	1662.65735	-713.73352	454.66742	1664.10999	-1113.54004	2807.73608	1664.61267	-1140.80042	2356.11768	1663.19690	-1171.41504	1905.91382	1660.99683	-1198.81738	1404.15649	1661.36255	-1227.45337	952.68231	1663.56348	-1244.68530	506.75693	1667.53223	
286	1.425	-575.94855	2755.41235	1664.46460	-604.78802	2306.23193	1662.39612	-637.32007	1851.86511	1662.08423	-660.71173	1349.36389	1662.46362	-690.05200	902.66632	1662.65796	-713.73114	454.68771	1664.11243	-1113.54492	2807.74292	1664.60071	-1140.79590	2356.10352	1663.20764	-1171.42297	1905.91296	1660.96729	-1198.81238	1404.16956	1661.38831	-1227.45984	952.67542	1663.55981	-1244.67102	506.76089	1667.51489	
